HIERARCHY
ROOT SpineBase
{
  OFFSET 0.000000 0.000000 0.000000
  CHANNELS 6 Xposition Yposition Zposition Zrotation Xrotation Yrotation
  JOINT SpineMid
  {
    OFFSET 0.000000 26.544512 0.000000
    CHANNELS 3 Zrotation Xrotation Yrotation
    JOINT SpineShoulder
    {
      OFFSET -0.029075 19.704703 -0.559660
      CHANNELS 3 Zrotation Xrotation Yrotation
      JOINT Neck
      {
        OFFSET -0.032934 6.528046 -0.453353
        CHANNELS 3 Zrotation Xrotation Yrotation
        JOINT Head
        {
          OFFSET -0.147061 11.212560 -1.674483
          CHANNELS 3 Zrotation Xrotation Yrotation
          End Site
          {
            OFFSET 0 0 0
          }
        }
      }
      JOINT ShoulderLeft
      {
        OFFSET -14.786243 -0.604476 4.258560
        CHANNELS 3 Zrotation Xrotation Yrotation
        JOINT ElbowLeft
        {
          OFFSET -4.307514 -21.524460 -1.100363
          CHANNELS 3 Zrotation Xrotation Yrotation
          JOINT WristLeft
          {
            OFFSET -0.273044 -19.587908 -2.919233
            CHANNELS 3 Zrotation Xrotation Yrotation
            JOINT HandLeft
            {
              OFFSET 0.621649 -7.202090 0.113731
              CHANNELS 3 Zrotation Xrotation Yrotation
              JOINT HandTipLeft
              {
                OFFSET 0.032681 -6.188753 -1.851378
                CHANNELS 3 Zrotation Xrotation Yrotation
                End Site
                {
                  OFFSET 0 0 0
                }
              }
              JOINT ThumbLeft
              {
                OFFSET -3.286795 1.448515 -0.580308
                CHANNELS 3 Zrotation Xrotation Yrotation
                End Site
                {
                  OFFSET 0 0 0
                }
              }
            }
          }
        }
      }
      JOINT ShoulderRight
      {
        OFFSET 13.948953 -2.152442 -2.784601
        CHANNELS 3 Zrotation Xrotation Yrotation
        JOINT ElbowRight
        {
          OFFSET 6.834281 -18.929217 -0.660919
          CHANNELS 3 Zrotation Xrotation Yrotation
          JOINT WristRight
          {
            OFFSET -0.553674 -17.139505 -0.773442
            CHANNELS 3 Zrotation Xrotation Yrotation
            JOINT HandRight
            {
              OFFSET -3.188666 -4.539050 -0.751332
              CHANNELS 3 Zrotation Xrotation Yrotation
              JOINT HandTipRight
              {
                OFFSET -0.084995 -6.868204 -1.855865
                CHANNELS 3 Zrotation Xrotation Yrotation
                End Site
                {
                  OFFSET 0 0 0
                }
              }
              JOINT ThumbRight
              {
                OFFSET -4.668531 1.830558 -3.991134
                CHANNELS 3 Zrotation Xrotation Yrotation
                End Site
                {
                  OFFSET 0 0 0
                }
              }
            }
          }
        }
      }
    }
  }
  JOINT HipLeft
  {
    OFFSET -5.857076 0.622345 -1.711366
    CHANNELS 3 Zrotation Xrotation Yrotation
    JOINT KneeLeft
    {
      OFFSET -0.285099 -38.058828 7.756261
      CHANNELS 3 Zrotation Xrotation Yrotation
      JOINT AnkleLeft
      {
        OFFSET 1.452677 -38.704288 13.310854
        CHANNELS 3 Zrotation Xrotation Yrotation
        JOINT FootLeft
        {
          OFFSET -2.768630 -3.172514 -12.082261
          CHANNELS 3 Zrotation Xrotation Yrotation
          End Site
          {
            OFFSET 0 0 0
          }
        }
      }
    }
  }
  JOINT HipRight
  {
    OFFSET 5.312003 0.921346 -4.324874
    CHANNELS 3 Zrotation Xrotation Yrotation
    JOINT KneeRight
    {
      OFFSET 2.887119 -38.513303 5.555413
      CHANNELS 3 Zrotation Xrotation Yrotation
      JOINT AnkleRight
      {
        OFFSET 2.924159 -36.767854 14.020128
        CHANNELS 3 Zrotation Xrotation Yrotation
        JOINT FootRight
        {
          OFFSET -2.276016 -3.471104 -11.050222
          CHANNELS 3 Zrotation Xrotation Yrotation
          End Site
          {
            OFFSET 0 0 0
          }
        }
      }
    }
  }
}
MOTION
Frames: 5
Frame Time: 0.033333
30.078688 81.714423 312.203139 -0.000000 0.000000 13.169966 0.000000 0.000000 -13.169966 -0.000000 0.000000 0.000000 -0.000000 0.000000 0.000000 0.000000 0.000000 0.000000 -0.000000 0.000000 0.000000 -0.000000 0.000000 0.000000 -0.000000 0.000000 0.000000 -0.000000 0.000000 0.000000 0.000000 0.000000 0.000000 0.000000 0.000000 0.000000 -0.000000 0.000000 0.000000 -0.000000 0.000000 0.000000 -0.000000 0.000000 0.000000 -0.000000 0.000000 0.000000 0.000000 0.000000 0.000000 0.000000 0.000000 0.000000 0.000000 0.000000 -13.169966 -0.000000 0.000000 0.000000 -0.000000 0.000000 0.000000 0.000000 0.000000 0.000000 0.000000 0.000000 -13.169966 -0.000000 0.000000 0.000000 -0.000000 0.000000 0.000000 0.000000 0.000000 0.000000
30.136432 81.775116 312.336575 0.002773 -0.070095 13.081250 0.013164 0.068903 -13.081256 -0.000000 0.000000 0.000000 -0.000000 0.000000 0.000000 0.000000 0.000000 0.000000 -0.000000 0.000000 0.000000 -0.000000 0.000000 0.000000 -0.000000 0.000000 0.000000 -0.741517 1.653905 0.240238 0.000000 0.000000 0.000000 0.000000 0.000000 0.000000 -0.000000 0.000000 0.000000 -0.000000 0.000000 0.000000 3.481972 -1.819504 0.775666 -3.458856 1.863110 -0.664099 0.000000 0.000000 0.000000 0.000000 0.000000 0.000000 0.013164 0.068903 -13.081256 -0.000000 0.000000 0.000000 0.959128 -2.396485 -1.687745 0.000000 0.000000 0.000000 0.013164 0.068903 -13.081256 -0.000000 0.000000 0.000000 -0.000000 0.000000 0.000000 0.000000 0.000000 0.000000
30.186408 81.838763 312.465538 0.011644 -0.137229 13.042183 0.019625 0.136317 -13.042192 -0.000000 0.000000 0.000000 -0.000000 0.000000 0.000000 0.000000 0.000000 0.000000 -0.000000 0.000000 0.000000 -0.000000 0.000000 0.000000 -1.164411 0.222803 0.003110 -0.168233 2.836959 0.443182 0.000000 0.000000 0.000000 0.000000 0.000000 0.000000 -0.000000 0.000000 0.000000 -0.000000 0.000000 0.000000 6.735653 -3.370751 1.521030 -7.571052 3.856213 -0.814506 0.000000 0.000000 0.000000 0.000000 0.000000 0.000000 0.019625 0.136317 -13.042192 -0.000000 0.000000 0.000000 1.773425 -4.617041 -3.182447 0.000000 0.000000 0.000000 0.019625 0.136317 -13.042192 -0.000000 0.000000 0.000000 -0.000000 0.000000 0.000000 0.000000 0.000000 0.000000
30.228616 81.905364 312.590027 0.026606 -0.201383 13.053041 0.019565 0.202189 -13.053028 -0.000000 0.000000 0.000000 -0.000000 0.000000 0.000000 0.000000 0.000000 0.000000 -0.000000 0.000000 0.000000 -0.000000 0.000000 0.000000 -1.716308 0.438169 0.017302 -0.051556 3.777326 0.592219 0.000000 0.000000 0.000000 0.000000 0.000000 0.000000 -0.000000 0.000000 0.000000 -0.000000 0.000000 0.000000 9.623768 -4.601029 2.167053 -10.740407 5.482868 -0.923276 0.000000 0.000000 0.000000 0.000000 0.000000 0.000000 0.019565 0.202189 -13.053028 -0.000000 0.000000 0.000000 2.404751 -6.484889 -4.382107 0.000000 0.000000 0.000000 0.019565 0.202189 -13.053028 -0.000000 0.000000 0.000000 -0.000000 0.000000 0.000000 0.000000 0.000000 0.000000
30.263056 81.974919 312.710042 0.047647 -0.262538 13.114080 0.013163 0.266502 -13.114001 -0.000000 0.000000 0.000000 -0.255414 0.825951 -0.025498 0.000000 0.000000 0.000000 -0.000000 0.000000 0.000000 -0.000000 0.000000 0.000000 -2.247292 0.720606 0.040915 0.204199 4.399638 0.682607 0.000000 0.000000 0.000000 0.000000 0.000000 0.000000 -0.000000 0.000000 0.000000 -0.000000 0.000000 0.000000 12.039433 -5.486491 2.653136 -13.360295 6.808261 -0.888174 0.000000 0.000000 0.000000 0.000000 0.000000 0.000000 0.013163 0.266502 -13.114001 -0.000000 0.000000 0.000000 2.827350 -7.831346 -5.194836 0.000000 0.000000 0.000000 0.013163 0.266502 -13.114001 -0.000000 0.000000 0.000000 -0.000000 0.000000 0.000000 0.000000 0.000000 0.000000
